# xmcd
#
# Track frame offsets:
#	150
#	34046
#	53638
#	73455
#	112863
#	139642
#	156477
#	176640
#	208784
#	240654
#	263428
#	285164
#	320513
#	341886
#
# Disc length: 4740 seconds
#
# Revision: 0
# Processed by: cddbd v1.5.1PL2 Copyright (c) Steve Scherf et al.
# Submitted via: EasyCDDAExtractor 8.0.1.1
#
DISCID=cc12820e
DTITLE=Trampled Under Foot - White Trash
DYEAR=2005
DGENRE=Blues
TTITLE0=Help Me
TTITLE1=Stir Crazy
TTITLE2=Honey Bee
TTITLE3=Summer Time
TTITLE4=Stay For A While
TTITLE5=It's So Hard To Believe
TTITLE6=Dust My Blues
TTITLE7=Chain Of Fools
TTITLE8=Mojo Workin'
TTITLE9=Back Door Man
TTITLE10=Talk To Me Baby
TTITLE11=Rather Be Blind
TTITLE12=All The Lovin'
TTITLE13=Night Time
EXTD=www.trampledunderfootkc.com\nwww.soundgateproductions.com\nrecorded live 
EXTD=at The Trouser Mouse, Blue Springs
EXTT0=
EXTT1=
EXTT2=
EXTT3=
EXTT4=
EXTT5=
EXTT6=
EXTT7=
EXTT8=
EXTT9=
EXTT10=
EXTT11=
EXTT12=
EXTT13=
PLAYORDER=
